<?xml version="1.0" ?>
<svg xmlns="http://www.w3.org/2000/svg" width="500" height="500" viewBox="0 0 500 500">
  <!--
Track: Silverstone Circuit
Series: F1
Year: 2024
Layout: silverstone-8
Track Type: normal
Stroke Width: outer=9, inner=2.2
Overpasses: 13
Length: 5.891 km
Laps: 52.0
Distance: 306.198 km
-->
  <rect x="0" y="0" width="500" height="500" fill="#0f0f23"/>
  <g id="base-track">
    <path d="M187.132 258.577c2.83-3.815 6.413-9.565 13.577-10.593 13.554-1.944 21.828 1.404 35.111 3.348 16.012 2.344 24.823-.431 33.316-6.912 16.091-12.281 27.87-21.819 38.54-30.677 7.154-5.938 13.066-1.296 14.154 3.024 1.523 6.05 2.831 11.45 6.969 24.844 1.656 5.362 9.362 7.346 12.628.432 5.003-10.589 6.313-15.666 7.839-21.819 5.617-22.642-.695-28.128-2.83-30.029-29.832-26.571-120.874-108.733-128.253-115.577-10.017-9.29-28.416-4.536-29.233 4.861-.816 9.398-.899 12.315-1.306 17.985-.25 3.466-7.266 17.717-20.74 12.8-14.209-5.185-7.879-20.646-7.325-21.701 7.29-13.886 15.623-29.211 20.505-37.048 9.58-15.378 25.704-25.296 39.407-26.584 18.917-1.78 76.237-6.805 105.634-9.258 2.916-.243 5.556-.498 7.862-.65 7.843-.516 21.345 4.846 24.827 16.658 8.166 27.706 12.928 43.496 14.332 67.407 1.269 21.603 2.421 42.276 2.653 49.736.278 8.92 1.882 13.375 9.635 24.627.68.984 1.46 2.099 2.315 3.333 2.182 3.148 3.236 7.36-.247 16.434-3.793 9.88-9.554 20.467-9.145 29.812.546 12.475 4.325 13.683 9.363 19.66 10.017 11.882 7.186 25.707-4.62 32.755-4.323 2.58-8.564 4.969-12.364 7.211-9.437 5.57-13.513 9.501-18.29 19.28-12.957 26.518-83.893 152.682-99.075 173.203-12.588 17.013-38.433 10.532-43.659-6.643-1.42-4.666-16.26-30.392-20.577-34.403-10.234-9.505-16.766-16.417-20.25-21.17-3.42-4.668-7.676-9.398-13.882-17.337-2.815-3.6-6.621-5.117-10.615-.81-3.291 3.549-5.422 5.822-7.408 7.183-2.547 1.745-8.378 1.89-11.644-1.998-1.713-2.04-10.749-12.65-14.154-22.035-3.919-10.802-5.688-12.142 5.771-27.113 10.997-14.365 52.26-67.725 59.227-76.475 2.784-3.497 7.22-9.384 11.952-15.761z" fill="none" stroke="#3a3a5c" stroke-width="9" stroke-linejoin="round" stroke-linecap="round"/>
    <path d="M187.132 258.577c2.83-3.815 6.413-9.565 13.577-10.593 13.554-1.944 21.828 1.404 35.111 3.348 16.012 2.344 24.823-.431 33.316-6.912 16.091-12.281 27.87-21.819 38.54-30.677 7.154-5.938 13.066-1.296 14.154 3.024 1.523 6.05 2.831 11.45 6.969 24.844 1.656 5.362 9.362 7.346 12.628.432 5.003-10.589 6.313-15.666 7.839-21.819 5.617-22.642-.695-28.128-2.83-30.029-29.832-26.571-120.874-108.733-128.253-115.577-10.017-9.29-28.416-4.536-29.233 4.861-.816 9.398-.899 12.315-1.306 17.985-.25 3.466-7.266 17.717-20.74 12.8-14.209-5.185-7.879-20.646-7.325-21.701 7.29-13.886 15.623-29.211 20.505-37.048 9.58-15.378 25.704-25.296 39.407-26.584 18.917-1.78 76.237-6.805 105.634-9.258 2.916-.243 5.556-.498 7.862-.65 7.843-.516 21.345 4.846 24.827 16.658 8.166 27.706 12.928 43.496 14.332 67.407 1.269 21.603 2.421 42.276 2.653 49.736.278 8.92 1.882 13.375 9.635 24.627.68.984 1.46 2.099 2.315 3.333 2.182 3.148 3.236 7.36-.247 16.434-3.793 9.88-9.554 20.467-9.145 29.812.546 12.475 4.325 13.683 9.363 19.66 10.017 11.882 7.186 25.707-4.62 32.755-4.323 2.58-8.564 4.969-12.364 7.211-9.437 5.57-13.513 9.501-18.29 19.28-12.957 26.518-83.893 152.682-99.075 173.203-12.588 17.013-38.433 10.532-43.659-6.643-1.42-4.666-16.26-30.392-20.577-34.403-10.234-9.505-16.766-16.417-20.25-21.17-3.42-4.668-7.676-9.398-13.882-17.337-2.815-3.6-6.621-5.117-10.615-.81-3.291 3.549-5.422 5.822-7.408 7.183-2.547 1.745-8.378 1.89-11.644-1.998-1.713-2.04-10.749-12.65-14.154-22.035-3.919-10.802-5.688-12.142 5.771-27.113 10.997-14.365 52.26-67.725 59.227-76.475 2.784-3.497 7.22-9.384 11.952-15.761z" fill="none" stroke="#e0e0e0" stroke-width="2.2" stroke-linejoin="round" stroke-linecap="round"/>
  </g>
  <g id="overpasses">
    <circle cx="23.8" cy="15.9" r="7.2" fill="#0f0f23"/>
    <path d="M187.132 258.577c2.83-3.815 6.413-9.565 13.577-10.593 13.554-1.944 21.828 1.404 35.111 3.348 16.012 2.344 24.823-.431 33.316-6.912 16.091-12.281 27.87-21.819 38.54-30.677 7.154-5.938 13.066-1.296 14.154 3.024 1.523 6.05 2.831 11.45 6.969 24.844 1.656 5.362 9.362 7.346 12.628.432 5.003-10.589 6.313-15.666 7.839-21.819 5.617-22.642-.695-28.128-2.83-30.029-29.832-26.571-120.874-108.733-128.253-115.577-10.017-9.29-28.416-4.536-29.233 4.861-.816 9.398-.899 12.315-1.306 17.985-.25 3.466-7.266 17.717-20.74 12.8-14.209-5.185-7.879-20.646-7.325-21.701 7.29-13.886 15.623-29.211 20.505-37.048 9.58-15.378 25.704-25.296 39.407-26.584 18.917-1.78 76.237-6.805 105.634-9.258 2.916-.243 5.556-.498 7.862-.65 7.843-.516 21.345 4.846 24.827 16.658 8.166 27.706 12.928 43.496 14.332 67.407 1.269 21.603 2.421 42.276 2.653 49.736.278 8.92 1.882 13.375 9.635 24.627.68.984 1.46 2.099 2.315 3.333 2.182 3.148 3.236 7.36-.247 16.434-3.793 9.88-9.554 20.467-9.145 29.812.546 12.475 4.325 13.683 9.363 19.66 10.017 11.882 7.186 25.707-4.62 32.755-4.323 2.58-8.564 4.969-12.364 7.211-9.437 5.57-13.513 9.501-18.29 19.28-12.957 26.518-83.893 152.682-99.075 173.203-12.588 17.013-38.433 10.532-43.659-6.643-1.42-4.666-16.26-30.392-20.577-34.403-10.234-9.505-16.766-16.417-20.25-21.17-3.42-4.668-7.676-9.398-13.882-17.337-2.815-3.6-6.621-5.117-10.615-.81-3.291 3.549-5.422 5.822-7.408 7.183-2.547 1.745-8.378 1.89-11.644-1.998-1.713-2.04-10.749-12.65-14.154-22.035-3.919-10.802-5.688-12.142 5.771-27.113 10.997-14.365 52.26-67.725 59.227-76.475 2.784-3.497 7.22-9.384 11.952-15.761z" fill="none" stroke="#e0e0e0" stroke-width="2.2" stroke-linejoin="round" stroke-linecap="round" clip-path="circle(6.3px at 23.8px 15.9px)"/>
    <circle cx="14.1" cy="-2.0" r="7.2" fill="#0f0f23"/>
    <path d="M187.132 258.577c2.83-3.815 6.413-9.565 13.577-10.593 13.554-1.944 21.828 1.404 35.111 3.348 16.012 2.344 24.823-.431 33.316-6.912 16.091-12.281 27.87-21.819 38.54-30.677 7.154-5.938 13.066-1.296 14.154 3.024 1.523 6.05 2.831 11.45 6.969 24.844 1.656 5.362 9.362 7.346 12.628.432 5.003-10.589 6.313-15.666 7.839-21.819 5.617-22.642-.695-28.128-2.83-30.029-29.832-26.571-120.874-108.733-128.253-115.577-10.017-9.29-28.416-4.536-29.233 4.861-.816 9.398-.899 12.315-1.306 17.985-.25 3.466-7.266 17.717-20.74 12.8-14.209-5.185-7.879-20.646-7.325-21.701 7.29-13.886 15.623-29.211 20.505-37.048 9.58-15.378 25.704-25.296 39.407-26.584 18.917-1.78 76.237-6.805 105.634-9.258 2.916-.243 5.556-.498 7.862-.65 7.843-.516 21.345 4.846 24.827 16.658 8.166 27.706 12.928 43.496 14.332 67.407 1.269 21.603 2.421 42.276 2.653 49.736.278 8.92 1.882 13.375 9.635 24.627.68.984 1.46 2.099 2.315 3.333 2.182 3.148 3.236 7.36-.247 16.434-3.793 9.88-9.554 20.467-9.145 29.812.546 12.475 4.325 13.683 9.363 19.66 10.017 11.882 7.186 25.707-4.62 32.755-4.323 2.58-8.564 4.969-12.364 7.211-9.437 5.57-13.513 9.501-18.29 19.28-12.957 26.518-83.893 152.682-99.075 173.203-12.588 17.013-38.433 10.532-43.659-6.643-1.42-4.666-16.26-30.392-20.577-34.403-10.234-9.505-16.766-16.417-20.25-21.17-3.42-4.668-7.676-9.398-13.882-17.337-2.815-3.6-6.621-5.117-10.615-.81-3.291 3.549-5.422 5.822-7.408 7.183-2.547 1.745-8.378 1.89-11.644-1.998-1.713-2.04-10.749-12.65-14.154-22.035-3.919-10.802-5.688-12.142 5.771-27.113 10.997-14.365 52.26-67.725 59.227-76.475 2.784-3.497 7.22-9.384 11.952-15.761z" fill="none" stroke="#e0e0e0" stroke-width="2.2" stroke-linejoin="round" stroke-linecap="round" clip-path="circle(6.3px at 14.1px -2.0px)"/>
    <circle cx="32.1" cy="-0.2" r="7.2" fill="#0f0f23"/>
    <path d="M187.132 258.577c2.83-3.815 6.413-9.565 13.577-10.593 13.554-1.944 21.828 1.404 35.111 3.348 16.012 2.344 24.823-.431 33.316-6.912 16.091-12.281 27.87-21.819 38.54-30.677 7.154-5.938 13.066-1.296 14.154 3.024 1.523 6.05 2.831 11.45 6.969 24.844 1.656 5.362 9.362 7.346 12.628.432 5.003-10.589 6.313-15.666 7.839-21.819 5.617-22.642-.695-28.128-2.83-30.029-29.832-26.571-120.874-108.733-128.253-115.577-10.017-9.29-28.416-4.536-29.233 4.861-.816 9.398-.899 12.315-1.306 17.985-.25 3.466-7.266 17.717-20.74 12.8-14.209-5.185-7.879-20.646-7.325-21.701 7.29-13.886 15.623-29.211 20.505-37.048 9.58-15.378 25.704-25.296 39.407-26.584 18.917-1.78 76.237-6.805 105.634-9.258 2.916-.243 5.556-.498 7.862-.65 7.843-.516 21.345 4.846 24.827 16.658 8.166 27.706 12.928 43.496 14.332 67.407 1.269 21.603 2.421 42.276 2.653 49.736.278 8.92 1.882 13.375 9.635 24.627.68.984 1.46 2.099 2.315 3.333 2.182 3.148 3.236 7.36-.247 16.434-3.793 9.88-9.554 20.467-9.145 29.812.546 12.475 4.325 13.683 9.363 19.66 10.017 11.882 7.186 25.707-4.62 32.755-4.323 2.58-8.564 4.969-12.364 7.211-9.437 5.57-13.513 9.501-18.29 19.28-12.957 26.518-83.893 152.682-99.075 173.203-12.588 17.013-38.433 10.532-43.659-6.643-1.42-4.666-16.26-30.392-20.577-34.403-10.234-9.505-16.766-16.417-20.25-21.17-3.42-4.668-7.676-9.398-13.882-17.337-2.815-3.6-6.621-5.117-10.615-.81-3.291 3.549-5.422 5.822-7.408 7.183-2.547 1.745-8.378 1.89-11.644-1.998-1.713-2.04-10.749-12.65-14.154-22.035-3.919-10.802-5.688-12.142 5.771-27.113 10.997-14.365 52.26-67.725 59.227-76.475 2.784-3.497 7.22-9.384 11.952-15.761z" fill="none" stroke="#e0e0e0" stroke-width="2.2" stroke-linejoin="round" stroke-linecap="round" clip-path="circle(6.3px at 32.1px -0.2px)"/>
    <circle cx="23.4" cy="-19.9" r="7.2" fill="#0f0f23"/>
    <path d="M187.132 258.577c2.83-3.815 6.413-9.565 13.577-10.593 13.554-1.944 21.828 1.404 35.111 3.348 16.012 2.344 24.823-.431 33.316-6.912 16.091-12.281 27.87-21.819 38.54-30.677 7.154-5.938 13.066-1.296 14.154 3.024 1.523 6.05 2.831 11.45 6.969 24.844 1.656 5.362 9.362 7.346 12.628.432 5.003-10.589 6.313-15.666 7.839-21.819 5.617-22.642-.695-28.128-2.83-30.029-29.832-26.571-120.874-108.733-128.253-115.577-10.017-9.29-28.416-4.536-29.233 4.861-.816 9.398-.899 12.315-1.306 17.985-.25 3.466-7.266 17.717-20.74 12.8-14.209-5.185-7.879-20.646-7.325-21.701 7.29-13.886 15.623-29.211 20.505-37.048 9.58-15.378 25.704-25.296 39.407-26.584 18.917-1.78 76.237-6.805 105.634-9.258 2.916-.243 5.556-.498 7.862-.65 7.843-.516 21.345 4.846 24.827 16.658 8.166 27.706 12.928 43.496 14.332 67.407 1.269 21.603 2.421 42.276 2.653 49.736.278 8.92 1.882 13.375 9.635 24.627.68.984 1.46 2.099 2.315 3.333 2.182 3.148 3.236 7.36-.247 16.434-3.793 9.88-9.554 20.467-9.145 29.812.546 12.475 4.325 13.683 9.363 19.66 10.017 11.882 7.186 25.707-4.62 32.755-4.323 2.58-8.564 4.969-12.364 7.211-9.437 5.57-13.513 9.501-18.29 19.28-12.957 26.518-83.893 152.682-99.075 173.203-12.588 17.013-38.433 10.532-43.659-6.643-1.42-4.666-16.26-30.392-20.577-34.403-10.234-9.505-16.766-16.417-20.25-21.17-3.42-4.668-7.676-9.398-13.882-17.337-2.815-3.6-6.621-5.117-10.615-.81-3.291 3.549-5.422 5.822-7.408 7.183-2.547 1.745-8.378 1.89-11.644-1.998-1.713-2.04-10.749-12.65-14.154-22.035-3.919-10.802-5.688-12.142 5.771-27.113 10.997-14.365 52.26-67.725 59.227-76.475 2.784-3.497 7.22-9.384 11.952-15.761z" fill="none" stroke="#e0e0e0" stroke-width="2.2" stroke-linejoin="round" stroke-linecap="round" clip-path="circle(6.3px at 23.4px -19.9px)"/>
    <circle cx="37.9" cy="-27.7" r="7.2" fill="#0f0f23"/>
    <path d="M187.132 258.577c2.83-3.815 6.413-9.565 13.577-10.593 13.554-1.944 21.828 1.404 35.111 3.348 16.012 2.344 24.823-.431 33.316-6.912 16.091-12.281 27.87-21.819 38.54-30.677 7.154-5.938 13.066-1.296 14.154 3.024 1.523 6.05 2.831 11.45 6.969 24.844 1.656 5.362 9.362 7.346 12.628.432 5.003-10.589 6.313-15.666 7.839-21.819 5.617-22.642-.695-28.128-2.83-30.029-29.832-26.571-120.874-108.733-128.253-115.577-10.017-9.29-28.416-4.536-29.233 4.861-.816 9.398-.899 12.315-1.306 17.985-.25 3.466-7.266 17.717-20.74 12.8-14.209-5.185-7.879-20.646-7.325-21.701 7.29-13.886 15.623-29.211 20.505-37.048 9.58-15.378 25.704-25.296 39.407-26.584 18.917-1.78 76.237-6.805 105.634-9.258 2.916-.243 5.556-.498 7.862-.65 7.843-.516 21.345 4.846 24.827 16.658 8.166 27.706 12.928 43.496 14.332 67.407 1.269 21.603 2.421 42.276 2.653 49.736.278 8.92 1.882 13.375 9.635 24.627.68.984 1.46 2.099 2.315 3.333 2.182 3.148 3.236 7.36-.247 16.434-3.793 9.88-9.554 20.467-9.145 29.812.546 12.475 4.325 13.683 9.363 19.66 10.017 11.882 7.186 25.707-4.62 32.755-4.323 2.58-8.564 4.969-12.364 7.211-9.437 5.57-13.513 9.501-18.29 19.28-12.957 26.518-83.893 152.682-99.075 173.203-12.588 17.013-38.433 10.532-43.659-6.643-1.42-4.666-16.26-30.392-20.577-34.403-10.234-9.505-16.766-16.417-20.25-21.17-3.42-4.668-7.676-9.398-13.882-17.337-2.815-3.6-6.621-5.117-10.615-.81-3.291 3.549-5.422 5.822-7.408 7.183-2.547 1.745-8.378 1.89-11.644-1.998-1.713-2.04-10.749-12.65-14.154-22.035-3.919-10.802-5.688-12.142 5.771-27.113 10.997-14.365 52.26-67.725 59.227-76.475 2.784-3.497 7.22-9.384 11.952-15.761z" fill="none" stroke="#e0e0e0" stroke-width="2.2" stroke-linejoin="round" stroke-linecap="round" clip-path="circle(6.3px at 37.9px -27.7px)"/>
    <circle cx="3.3" cy="10.1" r="7.2" fill="#0f0f23"/>
    <path d="M187.132 258.577c2.83-3.815 6.413-9.565 13.577-10.593 13.554-1.944 21.828 1.404 35.111 3.348 16.012 2.344 24.823-.431 33.316-6.912 16.091-12.281 27.87-21.819 38.54-30.677 7.154-5.938 13.066-1.296 14.154 3.024 1.523 6.05 2.831 11.45 6.969 24.844 1.656 5.362 9.362 7.346 12.628.432 5.003-10.589 6.313-15.666 7.839-21.819 5.617-22.642-.695-28.128-2.83-30.029-29.832-26.571-120.874-108.733-128.253-115.577-10.017-9.29-28.416-4.536-29.233 4.861-.816 9.398-.899 12.315-1.306 17.985-.25 3.466-7.266 17.717-20.74 12.8-14.209-5.185-7.879-20.646-7.325-21.701 7.29-13.886 15.623-29.211 20.505-37.048 9.58-15.378 25.704-25.296 39.407-26.584 18.917-1.78 76.237-6.805 105.634-9.258 2.916-.243 5.556-.498 7.862-.65 7.843-.516 21.345 4.846 24.827 16.658 8.166 27.706 12.928 43.496 14.332 67.407 1.269 21.603 2.421 42.276 2.653 49.736.278 8.92 1.882 13.375 9.635 24.627.68.984 1.46 2.099 2.315 3.333 2.182 3.148 3.236 7.36-.247 16.434-3.793 9.88-9.554 20.467-9.145 29.812.546 12.475 4.325 13.683 9.363 19.66 10.017 11.882 7.186 25.707-4.62 32.755-4.323 2.58-8.564 4.969-12.364 7.211-9.437 5.57-13.513 9.501-18.29 19.28-12.957 26.518-83.893 152.682-99.075 173.203-12.588 17.013-38.433 10.532-43.659-6.643-1.42-4.666-16.26-30.392-20.577-34.403-10.234-9.505-16.766-16.417-20.25-21.17-3.42-4.668-7.676-9.398-13.882-17.337-2.815-3.6-6.621-5.117-10.615-.81-3.291 3.549-5.422 5.822-7.408 7.183-2.547 1.745-8.378 1.89-11.644-1.998-1.713-2.04-10.749-12.65-14.154-22.035-3.919-10.802-5.688-12.142 5.771-27.113 10.997-14.365 52.26-67.725 59.227-76.475 2.784-3.497 7.22-9.384 11.952-15.761z" fill="none" stroke="#e0e0e0" stroke-width="2.2" stroke-linejoin="round" stroke-linecap="round" clip-path="circle(6.3px at 3.3px 10.1px)"/>
    <circle cx="4.3" cy="27.6" r="7.2" fill="#0f0f23"/>
    <path d="M187.132 258.577c2.83-3.815 6.413-9.565 13.577-10.593 13.554-1.944 21.828 1.404 35.111 3.348 16.012 2.344 24.823-.431 33.316-6.912 16.091-12.281 27.87-21.819 38.54-30.677 7.154-5.938 13.066-1.296 14.154 3.024 1.523 6.05 2.831 11.45 6.969 24.844 1.656 5.362 9.362 7.346 12.628.432 5.003-10.589 6.313-15.666 7.839-21.819 5.617-22.642-.695-28.128-2.83-30.029-29.832-26.571-120.874-108.733-128.253-115.577-10.017-9.29-28.416-4.536-29.233 4.861-.816 9.398-.899 12.315-1.306 17.985-.25 3.466-7.266 17.717-20.74 12.8-14.209-5.185-7.879-20.646-7.325-21.701 7.29-13.886 15.623-29.211 20.505-37.048 9.58-15.378 25.704-25.296 39.407-26.584 18.917-1.78 76.237-6.805 105.634-9.258 2.916-.243 5.556-.498 7.862-.65 7.843-.516 21.345 4.846 24.827 16.658 8.166 27.706 12.928 43.496 14.332 67.407 1.269 21.603 2.421 42.276 2.653 49.736.278 8.92 1.882 13.375 9.635 24.627.68.984 1.46 2.099 2.315 3.333 2.182 3.148 3.236 7.36-.247 16.434-3.793 9.88-9.554 20.467-9.145 29.812.546 12.475 4.325 13.683 9.363 19.66 10.017 11.882 7.186 25.707-4.62 32.755-4.323 2.58-8.564 4.969-12.364 7.211-9.437 5.57-13.513 9.501-18.29 19.28-12.957 26.518-83.893 152.682-99.075 173.203-12.588 17.013-38.433 10.532-43.659-6.643-1.42-4.666-16.26-30.392-20.577-34.403-10.234-9.505-16.766-16.417-20.25-21.17-3.42-4.668-7.676-9.398-13.882-17.337-2.815-3.6-6.621-5.117-10.615-.81-3.291 3.549-5.422 5.822-7.408 7.183-2.547 1.745-8.378 1.89-11.644-1.998-1.713-2.04-10.749-12.65-14.154-22.035-3.919-10.802-5.688-12.142 5.771-27.113 10.997-14.365 52.26-67.725 59.227-76.475 2.784-3.497 7.22-9.384 11.952-15.761z" fill="none" stroke="#e0e0e0" stroke-width="2.2" stroke-linejoin="round" stroke-linecap="round" clip-path="circle(6.3px at 4.3px 27.6px)"/>
    <circle cx="4.9" cy="-16.5" r="7.2" fill="#0f0f23"/>
    <path d="M187.132 258.577c2.83-3.815 6.413-9.565 13.577-10.593 13.554-1.944 21.828 1.404 35.111 3.348 16.012 2.344 24.823-.431 33.316-6.912 16.091-12.281 27.87-21.819 38.54-30.677 7.154-5.938 13.066-1.296 14.154 3.024 1.523 6.05 2.831 11.45 6.969 24.844 1.656 5.362 9.362 7.346 12.628.432 5.003-10.589 6.313-15.666 7.839-21.819 5.617-22.642-.695-28.128-2.83-30.029-29.832-26.571-120.874-108.733-128.253-115.577-10.017-9.29-28.416-4.536-29.233 4.861-.816 9.398-.899 12.315-1.306 17.985-.25 3.466-7.266 17.717-20.74 12.8-14.209-5.185-7.879-20.646-7.325-21.701 7.29-13.886 15.623-29.211 20.505-37.048 9.58-15.378 25.704-25.296 39.407-26.584 18.917-1.78 76.237-6.805 105.634-9.258 2.916-.243 5.556-.498 7.862-.65 7.843-.516 21.345 4.846 24.827 16.658 8.166 27.706 12.928 43.496 14.332 67.407 1.269 21.603 2.421 42.276 2.653 49.736.278 8.92 1.882 13.375 9.635 24.627.68.984 1.46 2.099 2.315 3.333 2.182 3.148 3.236 7.36-.247 16.434-3.793 9.88-9.554 20.467-9.145 29.812.546 12.475 4.325 13.683 9.363 19.66 10.017 11.882 7.186 25.707-4.62 32.755-4.323 2.58-8.564 4.969-12.364 7.211-9.437 5.57-13.513 9.501-18.29 19.28-12.957 26.518-83.893 152.682-99.075 173.203-12.588 17.013-38.433 10.532-43.659-6.643-1.42-4.666-16.26-30.392-20.577-34.403-10.234-9.505-16.766-16.417-20.25-21.17-3.42-4.668-7.676-9.398-13.882-17.337-2.815-3.6-6.621-5.117-10.615-.81-3.291 3.549-5.422 5.822-7.408 7.183-2.547 1.745-8.378 1.89-11.644-1.998-1.713-2.04-10.749-12.65-14.154-22.035-3.919-10.802-5.688-12.142 5.771-27.113 10.997-14.365 52.26-67.725 59.227-76.475 2.784-3.497 7.22-9.384 11.952-15.761z" fill="none" stroke="#e0e0e0" stroke-width="2.2" stroke-linejoin="round" stroke-linecap="round" clip-path="circle(6.3px at 4.9px -16.5px)"/>
    <circle cx="-12.6" cy="-29.0" r="7.2" fill="#0f0f23"/>
    <path d="M187.132 258.577c2.83-3.815 6.413-9.565 13.577-10.593 13.554-1.944 21.828 1.404 35.111 3.348 16.012 2.344 24.823-.431 33.316-6.912 16.091-12.281 27.87-21.819 38.54-30.677 7.154-5.938 13.066-1.296 14.154 3.024 1.523 6.05 2.831 11.45 6.969 24.844 1.656 5.362 9.362 7.346 12.628.432 5.003-10.589 6.313-15.666 7.839-21.819 5.617-22.642-.695-28.128-2.83-30.029-29.832-26.571-120.874-108.733-128.253-115.577-10.017-9.29-28.416-4.536-29.233 4.861-.816 9.398-.899 12.315-1.306 17.985-.25 3.466-7.266 17.717-20.74 12.8-14.209-5.185-7.879-20.646-7.325-21.701 7.29-13.886 15.623-29.211 20.505-37.048 9.58-15.378 25.704-25.296 39.407-26.584 18.917-1.78 76.237-6.805 105.634-9.258 2.916-.243 5.556-.498 7.862-.65 7.843-.516 21.345 4.846 24.827 16.658 8.166 27.706 12.928 43.496 14.332 67.407 1.269 21.603 2.421 42.276 2.653 49.736.278 8.92 1.882 13.375 9.635 24.627.68.984 1.46 2.099 2.315 3.333 2.182 3.148 3.236 7.36-.247 16.434-3.793 9.88-9.554 20.467-9.145 29.812.546 12.475 4.325 13.683 9.363 19.66 10.017 11.882 7.186 25.707-4.62 32.755-4.323 2.58-8.564 4.969-12.364 7.211-9.437 5.57-13.513 9.501-18.29 19.28-12.957 26.518-83.893 152.682-99.075 173.203-12.588 17.013-38.433 10.532-43.659-6.643-1.42-4.666-16.26-30.392-20.577-34.403-10.234-9.505-16.766-16.417-20.25-21.17-3.42-4.668-7.676-9.398-13.882-17.337-2.815-3.6-6.621-5.117-10.615-.81-3.291 3.549-5.422 5.822-7.408 7.183-2.547 1.745-8.378 1.89-11.644-1.998-1.713-2.04-10.749-12.65-14.154-22.035-3.919-10.802-5.688-12.142 5.771-27.113 10.997-14.365 52.26-67.725 59.227-76.475 2.784-3.497 7.22-9.384 11.952-15.761z" fill="none" stroke="#e0e0e0" stroke-width="2.2" stroke-linejoin="round" stroke-linecap="round" clip-path="circle(6.3px at -12.6px -29.0px)"/>
    <circle cx="-32.8" cy="-8.8" r="7.2" fill="#0f0f23"/>
    <path d="M187.132 258.577c2.83-3.815 6.413-9.565 13.577-10.593 13.554-1.944 21.828 1.404 35.111 3.348 16.012 2.344 24.823-.431 33.316-6.912 16.091-12.281 27.87-21.819 38.54-30.677 7.154-5.938 13.066-1.296 14.154 3.024 1.523 6.05 2.831 11.45 6.969 24.844 1.656 5.362 9.362 7.346 12.628.432 5.003-10.589 6.313-15.666 7.839-21.819 5.617-22.642-.695-28.128-2.83-30.029-29.832-26.571-120.874-108.733-128.253-115.577-10.017-9.29-28.416-4.536-29.233 4.861-.816 9.398-.899 12.315-1.306 17.985-.25 3.466-7.266 17.717-20.74 12.8-14.209-5.185-7.879-20.646-7.325-21.701 7.29-13.886 15.623-29.211 20.505-37.048 9.58-15.378 25.704-25.296 39.407-26.584 18.917-1.78 76.237-6.805 105.634-9.258 2.916-.243 5.556-.498 7.862-.65 7.843-.516 21.345 4.846 24.827 16.658 8.166 27.706 12.928 43.496 14.332 67.407 1.269 21.603 2.421 42.276 2.653 49.736.278 8.92 1.882 13.375 9.635 24.627.68.984 1.46 2.099 2.315 3.333 2.182 3.148 3.236 7.36-.247 16.434-3.793 9.88-9.554 20.467-9.145 29.812.546 12.475 4.325 13.683 9.363 19.66 10.017 11.882 7.186 25.707-4.62 32.755-4.323 2.58-8.564 4.969-12.364 7.211-9.437 5.57-13.513 9.501-18.29 19.28-12.957 26.518-83.893 152.682-99.075 173.203-12.588 17.013-38.433 10.532-43.659-6.643-1.42-4.666-16.26-30.392-20.577-34.403-10.234-9.505-16.766-16.417-20.25-21.17-3.42-4.668-7.676-9.398-13.882-17.337-2.815-3.6-6.621-5.117-10.615-.81-3.291 3.549-5.422 5.822-7.408 7.183-2.547 1.745-8.378 1.89-11.644-1.998-1.713-2.04-10.749-12.65-14.154-22.035-3.919-10.802-5.688-12.142 5.771-27.113 10.997-14.365 52.26-67.725 59.227-76.475 2.784-3.497 7.22-9.384 11.952-15.761z" fill="none" stroke="#e0e0e0" stroke-width="2.2" stroke-linejoin="round" stroke-linecap="round" clip-path="circle(6.3px at -32.8px -8.8px)"/>
    <circle cx="-15.5" cy="6.7" r="7.2" fill="#0f0f23"/>
    <path d="M187.132 258.577c2.83-3.815 6.413-9.565 13.577-10.593 13.554-1.944 21.828 1.404 35.111 3.348 16.012 2.344 24.823-.431 33.316-6.912 16.091-12.281 27.87-21.819 38.54-30.677 7.154-5.938 13.066-1.296 14.154 3.024 1.523 6.05 2.831 11.45 6.969 24.844 1.656 5.362 9.362 7.346 12.628.432 5.003-10.589 6.313-15.666 7.839-21.819 5.617-22.642-.695-28.128-2.83-30.029-29.832-26.571-120.874-108.733-128.253-115.577-10.017-9.29-28.416-4.536-29.233 4.861-.816 9.398-.899 12.315-1.306 17.985-.25 3.466-7.266 17.717-20.74 12.8-14.209-5.185-7.879-20.646-7.325-21.701 7.29-13.886 15.623-29.211 20.505-37.048 9.58-15.378 25.704-25.296 39.407-26.584 18.917-1.78 76.237-6.805 105.634-9.258 2.916-.243 5.556-.498 7.862-.65 7.843-.516 21.345 4.846 24.827 16.658 8.166 27.706 12.928 43.496 14.332 67.407 1.269 21.603 2.421 42.276 2.653 49.736.278 8.92 1.882 13.375 9.635 24.627.68.984 1.46 2.099 2.315 3.333 2.182 3.148 3.236 7.36-.247 16.434-3.793 9.88-9.554 20.467-9.145 29.812.546 12.475 4.325 13.683 9.363 19.66 10.017 11.882 7.186 25.707-4.62 32.755-4.323 2.58-8.564 4.969-12.364 7.211-9.437 5.57-13.513 9.501-18.29 19.28-12.957 26.518-83.893 152.682-99.075 173.203-12.588 17.013-38.433 10.532-43.659-6.643-1.42-4.666-16.26-30.392-20.577-34.403-10.234-9.505-16.766-16.417-20.25-21.17-3.42-4.668-7.676-9.398-13.882-17.337-2.815-3.6-6.621-5.117-10.615-.81-3.291 3.549-5.422 5.822-7.408 7.183-2.547 1.745-8.378 1.89-11.644-1.998-1.713-2.04-10.749-12.65-14.154-22.035-3.919-10.802-5.688-12.142 5.771-27.113 10.997-14.365 52.26-67.725 59.227-76.475 2.784-3.497 7.22-9.384 11.952-15.761z" fill="none" stroke="#e0e0e0" stroke-width="2.2" stroke-linejoin="round" stroke-linecap="round" clip-path="circle(6.3px at -15.5px 6.7px)"/>
    <circle cx="-15.6" cy="-9.4" r="7.2" fill="#0f0f23"/>
    <path d="M187.132 258.577c2.83-3.815 6.413-9.565 13.577-10.593 13.554-1.944 21.828 1.404 35.111 3.348 16.012 2.344 24.823-.431 33.316-6.912 16.091-12.281 27.87-21.819 38.54-30.677 7.154-5.938 13.066-1.296 14.154 3.024 1.523 6.05 2.831 11.45 6.969 24.844 1.656 5.362 9.362 7.346 12.628.432 5.003-10.589 6.313-15.666 7.839-21.819 5.617-22.642-.695-28.128-2.83-30.029-29.832-26.571-120.874-108.733-128.253-115.577-10.017-9.29-28.416-4.536-29.233 4.861-.816 9.398-.899 12.315-1.306 17.985-.25 3.466-7.266 17.717-20.74 12.8-14.209-5.185-7.879-20.646-7.325-21.701 7.29-13.886 15.623-29.211 20.505-37.048 9.58-15.378 25.704-25.296 39.407-26.584 18.917-1.78 76.237-6.805 105.634-9.258 2.916-.243 5.556-.498 7.862-.65 7.843-.516 21.345 4.846 24.827 16.658 8.166 27.706 12.928 43.496 14.332 67.407 1.269 21.603 2.421 42.276 2.653 49.736.278 8.92 1.882 13.375 9.635 24.627.68.984 1.46 2.099 2.315 3.333 2.182 3.148 3.236 7.36-.247 16.434-3.793 9.88-9.554 20.467-9.145 29.812.546 12.475 4.325 13.683 9.363 19.66 10.017 11.882 7.186 25.707-4.62 32.755-4.323 2.58-8.564 4.969-12.364 7.211-9.437 5.57-13.513 9.501-18.29 19.28-12.957 26.518-83.893 152.682-99.075 173.203-12.588 17.013-38.433 10.532-43.659-6.643-1.42-4.666-16.26-30.392-20.577-34.403-10.234-9.505-16.766-16.417-20.25-21.17-3.42-4.668-7.676-9.398-13.882-17.337-2.815-3.6-6.621-5.117-10.615-.81-3.291 3.549-5.422 5.822-7.408 7.183-2.547 1.745-8.378 1.89-11.644-1.998-1.713-2.04-10.749-12.65-14.154-22.035-3.919-10.802-5.688-12.142 5.771-27.113 10.997-14.365 52.26-67.725 59.227-76.475 2.784-3.497 7.22-9.384 11.952-15.761z" fill="none" stroke="#e0e0e0" stroke-width="2.2" stroke-linejoin="round" stroke-linecap="round" clip-path="circle(6.3px at -15.6px -9.4px)"/>
    <circle cx="22.2" cy="-35.9" r="7.2" fill="#0f0f23"/>
    <path d="M187.132 258.577c2.83-3.815 6.413-9.565 13.577-10.593 13.554-1.944 21.828 1.404 35.111 3.348 16.012 2.344 24.823-.431 33.316-6.912 16.091-12.281 27.87-21.819 38.54-30.677 7.154-5.938 13.066-1.296 14.154 3.024 1.523 6.05 2.831 11.45 6.969 24.844 1.656 5.362 9.362 7.346 12.628.432 5.003-10.589 6.313-15.666 7.839-21.819 5.617-22.642-.695-28.128-2.83-30.029-29.832-26.571-120.874-108.733-128.253-115.577-10.017-9.29-28.416-4.536-29.233 4.861-.816 9.398-.899 12.315-1.306 17.985-.25 3.466-7.266 17.717-20.74 12.8-14.209-5.185-7.879-20.646-7.325-21.701 7.29-13.886 15.623-29.211 20.505-37.048 9.58-15.378 25.704-25.296 39.407-26.584 18.917-1.78 76.237-6.805 105.634-9.258 2.916-.243 5.556-.498 7.862-.65 7.843-.516 21.345 4.846 24.827 16.658 8.166 27.706 12.928 43.496 14.332 67.407 1.269 21.603 2.421 42.276 2.653 49.736.278 8.92 1.882 13.375 9.635 24.627.68.984 1.46 2.099 2.315 3.333 2.182 3.148 3.236 7.36-.247 16.434-3.793 9.88-9.554 20.467-9.145 29.812.546 12.475 4.325 13.683 9.363 19.66 10.017 11.882 7.186 25.707-4.62 32.755-4.323 2.58-8.564 4.969-12.364 7.211-9.437 5.57-13.513 9.501-18.29 19.28-12.957 26.518-83.893 152.682-99.075 173.203-12.588 17.013-38.433 10.532-43.659-6.643-1.42-4.666-16.26-30.392-20.577-34.403-10.234-9.505-16.766-16.417-20.25-21.17-3.42-4.668-7.676-9.398-13.882-17.337-2.815-3.6-6.621-5.117-10.615-.81-3.291 3.549-5.422 5.822-7.408 7.183-2.547 1.745-8.378 1.89-11.644-1.998-1.713-2.04-10.749-12.65-14.154-22.035-3.919-10.802-5.688-12.142 5.771-27.113 10.997-14.365 52.26-67.725 59.227-76.475 2.784-3.497 7.22-9.384 11.952-15.761z" fill="none" stroke="#e0e0e0" stroke-width="2.2" stroke-linejoin="round" stroke-linecap="round" clip-path="circle(6.3px at 22.2px -35.9px)"/>
  </g>
  <g id="labels">
    <text x="250" y="25" text-anchor="middle" font-size="18" font-weight="bold" fill="#ffffff" font-family="Arial, sans-serif">Silverstone Circuit</text>
    <text x="250" y="490" text-anchor="middle" font-size="11" fill="#888888" font-family="Arial, sans-serif">5.891 km | 52 laps | 306.198 km | 2024</text>
  </g>
</svg>
